<svg xmlns="http://www.w3.org/2000/svg" viewBox="0 0 512 512"><path d="M512 281.06v1.5c-2.64 37.6-16.43 70-45.52 94.52-56.1 47.27-136.03 38.11-182.89-17.37a.79.79 0 0 0-1.26.07l-26.49 39.55q-.34.51-.68 0l-26.03-38.94a1.26 1.26 0 0 0-2.01-.11c-48.73 58.13-137.45 63.28-190.71 7.68Q2.9 332.98 0 282.94v-6.75q1.65-38.66 23.26-70.43c5.8-8.52-16.65-44.06-23.26-52.57v-.75q39-.38 78-.13c1.15.01 3-.42 4.14-1.15 45.24-28.62 98.76-43.39 151.12-46.11 62.07-3.23 126.99 7.56 180.67 39.03 5.96 3.5 10.74 7.38 16.85 7.43q37.25.36 74.46.24 2.73-.01 5.51.34a.41.41 0 0 1 .29.63c-10.01 14.7-18.97 30.88-23.81 47.78-.52 1.82.15 3.73 1.3 5.41 15.43 22.59 23.57 47.69 23.47 75.15ZM134.29 150.51c62.08 3.85 111.45 48.6 121.4 109.96a.4.4 0 0 0 .79 0c9.6-60.74 58.26-104.52 119.41-109.43a.28.28 0 0 0 .09-.53c-48.42-20.94-100.86-26.58-154.01-21.85q-45.05 4-87.79 21.18a.35.35 0 0 0 .11.67Zm96.07 128.44a101.99 101.99 0 0 0-101.99-101.99A101.99 101.99 0 0 0 26.38 278.95a101.99 101.99 0 0 0 101.99 101.99 101.99 101.99 0 0 0 101.99-101.99Zm255.49.44a102.1 102.1 0 0 0-102.1-102.1 102.1 102.1 0 0 0-102.1 102.1 102.1 102.1 0 0 0 102.1 102.1 102.1 102.1 0 0 0 102.1-102.1Z"/><path d="M190 277.82a63.29 63.29 0 0 1-63.29 63.29 63.29 63.29 0 0 1-63.29-63.29 63.29 63.29 0 0 1 63.29-63.29A63.29 63.29 0 0 1 190 277.82Zm-22.14 0a41.17 41.17 0 0 0-41.17-41.17 41.17 41.17 0 0 0-41.17 41.17 41.17 41.17 0 0 0 41.17 41.17 41.17 41.17 0 0 0 41.17-41.17ZM446.69 277.82a63.28 63.28 0 0 1-63.28 63.28 63.28 63.28 0 0 1-63.28-63.28 63.28 63.28 0 0 1 63.28-63.28 63.28 63.28 0 0 1 63.28 63.28Zm-22.12-.01a41.17 41.17 0 0 0-41.17-41.17 41.17 41.17 0 0 0-41.17 41.17 41.17 41.17 0 0 0 41.17 41.17 41.17 41.17 0 0 0 41.17-41.17Z"/><circle cx="126.73" cy="277.81" r="21.12"/><circle cx="383.45" cy="277.79" r="20.88"/></svg>